<svg xmlns="http://www.w3.org/2000/svg" xmlns:xlink="http://www.w3.org/1999/xlink" version="1.1" x="0px" y="0px" viewBox="0 0 100 125" style="enable-background:new 0 0 100 100;" xml:space="preserve"><path d="M90.0097656,86.0996094L85.140625,58.427002V15.2480469c0-2.9091797-2.390625-5.2763672-5.3300781-5.2763672H19.9365234  c-2.9394531,0-5.3300781,2.3671875-5.3300781,5.2763672v43.1850586L9.9638672,86.1308594  c-0.1542969,0.9541016,0.1181641,1.9257812,0.7460938,2.6640625c0.6367188,0.7480469,1.5683594,1.1767578,2.5556641,1.1767578  h73.4472656c0.9921875,0,1.9267578-0.4326172,2.5644531-1.1875C89.90625,88.0390625,90.1728516,87.0625,90.0097656,86.0996094z   M16.6064453,18.75H83.140625v38.7666016H16.6064453V18.75z M19.9365234,11.9716797h59.8740234  c1.8359375,0,3.3300781,1.4697266,3.3300781,3.2763672V16.75H16.6064453v-1.5019531  C16.6064453,13.4414062,18.1005859,11.9716797,19.9365234,11.9716797z M87.7490234,87.4941406  c-0.2568359,0.3037109-0.6337891,0.4775391-1.0361328,0.4775391H13.265625c-0.4003906,0-0.7763672-0.1728516-1.0322266-0.4736328  c-0.2519531-0.2958984-0.3564453-0.6679688-0.2958984-1.0429688l4.5153198-26.9384766h66.8480225l4.7382202,26.9238281  C88.1035156,86.8212891,88.0009766,87.1953125,87.7490234,87.4941406z"/><path d="M79.0771484,64.2441406H20.6699219c-0.5048828,0-0.9306641,0.3769531-0.9921875,0.8779297l-2.0957031,17  c-0.0351562,0.2841797,0.0537109,0.5703125,0.2431641,0.7841797c0.1894531,0.2148438,0.4628906,0.3378906,0.7490234,0.3378906  h62.7675781c0.2880859,0,0.5625-0.1240234,0.7519531-0.3408203c0.1904297-0.2167969,0.2773438-0.5058594,0.2392578-0.7910156  l-2.2646484-17C80.0019531,64.6152344,79.578125,64.2441406,79.0771484,64.2441406z M79.0674438,72.7441406H65.5200195  l-0.6361694-6.5h13.3173218L79.0674438,72.7441406z M48.9580078,74.7441406v6.5H35.0129395l0.6365356-6.5H48.9580078z   M35.8453369,72.7441406l0.6365967-6.5h12.4760742v6.5H35.8453369z M50.9580078,74.7441406h12.7484131l0.6361694,6.5H50.9580078  V74.7441406z M50.9580078,72.7441406v-6.5h11.9165039l0.6361694,6.5H50.9580078z M34.4725342,66.2441406l-0.6365356,6.5H20.7531738  l0.8015137-6.5H34.4725342z M20.5065918,74.7441406h13.1335449l-0.6365356,6.5H19.7050781L20.5065918,74.7441406z   M66.3519287,81.2441406l-0.6361694-6.5h13.6181641l0.866272,6.5H66.3519287z"/><path d="M46.4990234,29.3144531c-0.3066406-0.2070312-0.7021484-0.2265625-1.0283203-0.0537109  c-0.3261719,0.1738281-0.5302734,0.5126953-0.5302734,0.8828125v15.9326172c0,0.3701172,0.2041016,0.7089844,0.5302734,0.8828125  c0.1474609,0.078125,0.3085938,0.1171875,0.4697266,0.1171875c0.1953125,0,0.390625-0.0576172,0.5585938-0.1708984  l11.8212891-7.9658203c0.2763672-0.1855469,0.4414062-0.4960938,0.4414062-0.8291016s-0.1650391-0.6435547-0.4414062-0.8291016  L46.4990234,29.3144531z M46.9404297,44.1962891V32.0234375l9.0322266,6.0869141L46.9404297,44.1962891z"/><path d="M49.7080078,23.5c-7.9482422,0-14.4140625,6.4658203-14.4140625,14.4140625S41.7597656,52.328125,49.7080078,52.328125  s14.4140625-6.4658203,14.4140625-14.4140625S57.65625,23.5,49.7080078,23.5z M49.7080078,50.328125  c-6.8447266,0-12.4140625-5.5693359-12.4140625-12.4140625S42.8632812,25.5,49.7080078,25.5  s12.4140625,5.5693359,12.4140625,12.4140625S56.5527344,50.328125,49.7080078,50.328125z"/><path d="M71.9462891,34.2470703c3.3085938,0,6-2.6914062,6-6s-2.6914062-6-6-6s-6,2.6914062-6,6  S68.6376953,34.2470703,71.9462891,34.2470703z M71.9462891,24.2470703c2.2060547,0,4,1.7939453,4,4s-1.7939453,4-4,4  s-4-1.7939453-4-4S69.7402344,24.2470703,71.9462891,24.2470703z"/><path d="M26.7109375,36.1435547c2.9042969,0,5.2675781-2.3632812,5.2675781-5.2675781s-2.3632812-5.2675781-5.2675781-5.2675781  c-2.9052734,0-5.2685547,2.3632812-5.2685547,5.2675781S23.8056641,36.1435547,26.7109375,36.1435547z M26.7109375,27.6083984  c1.8017578,0,3.2675781,1.4658203,3.2675781,3.2675781s-1.4658203,3.2675781-3.2675781,3.2675781  c-1.8027344,0-3.2685547-1.4658203-3.2685547-3.2675781S24.9082031,27.6083984,26.7109375,27.6083984z"/><path d="M35.1982422,47.5009766l-1.859375-1.0166016c-1.3330078-0.7294922-2.4238281-1.8203125-3.1523438-3.1523438  l-1.0166016-1.8583984c-0.3496094-0.6425781-1.4042969-0.6425781-1.7539062,0l-1.0175781,1.8583984  c-0.7275391,1.3320312-1.8183594,2.4228516-3.1513672,3.1523438l-1.859375,1.0166016  c-0.3212891,0.1748047-0.5205078,0.5117188-0.5205078,0.8769531s0.1992188,0.7021484,0.5195312,0.8769531l1.8603516,1.0175781  c1.3330078,0.7294922,2.4238281,1.8203125,3.1523438,3.1523438l1.0166016,1.8583984  c0.1748047,0.3212891,0.5117188,0.5205078,0.8769531,0.5205078s0.7021484-0.1992188,0.8769531-0.5205078L30.1875,53.4248047  c0.7275391-1.3320312,1.8183594-2.4228516,3.1523438-3.1523438l1.859375-1.0175781  c0.3203125-0.1748047,0.5195312-0.5117188,0.5195312-0.8769531S35.5195312,47.6757812,35.1982422,47.5009766z   M32.3798828,48.5185547c-1.6708984,0.9130859-3.0351562,2.2783203-3.9472656,3.9472656l-0.1396484,0.2539062l-0.1386719-0.2539062  c-0.9130859-1.6689453-2.2773438-3.0341797-3.9472656-3.9472656l-0.2558594-0.140625l0.2548828-0.1396484  c1.6708984-0.9130859,3.0351562-2.2783203,3.9472656-3.9472656l0.1396484-0.2539062l0.1386719,0.2539062  c0.9130859,1.6689453,2.2773438,3.0341797,3.9482422,3.9472656l0.2548828,0.1396484L32.3798828,48.5185547z"/><path d="M80.2626953,44.6425781l-1.9404297-1.0615234c-1.3994141-0.765625-2.5439453-1.9091797-3.3076172-3.3076172  l-1.0605469-1.9404297C73.7783203,38.0117188,73.4423828,37.8125,73.0761719,37.8125  c-0.3652344,0-0.7021484,0.1992188-0.8769531,0.5205078l-1.0615234,1.9404297  c-0.7646484,1.3974609-1.9091797,2.5419922-3.3076172,3.3076172l-1.9404297,1.0615234  c-0.3212891,0.1748047-0.5205078,0.5117188-0.5205078,0.8769531s0.1992188,0.7021484,0.5205078,0.8769531l1.9394531,1.0615234  c1.3994141,0.765625,2.5439453,1.9101562,3.3085938,3.3076172l1.0615234,1.9404297  c0.1748047,0.3212891,0.5117188,0.5205078,0.8769531,0.5205078c0.3662109,0,0.7021484-0.1992188,0.8779297-0.5205078  l1.0595703-1.9404297c0.7646484-1.3984375,1.9091797-2.5419922,3.3085938-3.3076172l1.9404297-1.0615234  c0.3212891-0.1748047,0.5205078-0.5117188,0.5205078-0.8769531S80.5839844,44.8173828,80.2626953,44.6425781z   M77.3632812,45.7041016c-1.7363281,0.9492188-3.1552734,2.3671875-4.1044922,4.1025391l-0.1826172,0.3359375l-0.1845703-0.3359375  c-0.9482422-1.734375-2.3662109-3.1533203-4.1025391-4.1025391l-0.3359375-0.1845703l0.3369141-0.1845703  c1.7353516-0.9492188,3.1533203-2.3681641,4.1015625-4.1025391l0.1845703-0.3359375l0.1835938,0.3359375  c0.9482422,1.7353516,2.3671875,3.1533203,4.1035156,4.1025391l0.3359375,0.1845703L77.3632812,45.7041016z"/></svg>
