<svg xmlns="http://www.w3.org/2000/svg" xmlns:xlink="http://www.w3.org/1999/xlink" version="1.1" x="0px" y="0px" viewBox="0 0 100 125" style="enable-background:new 0 0 100 100;" xml:space="preserve"><path d="M49.3544922,9.9716797c-15.7984009,0.3024902-29.4354248,9.9629517-35.6432495,23.5783081  c-0.1340942,0.1555176-0.2354736,0.3419189-0.2542114,0.5613403c-0.0001221,0.0014038,0.0006104,0.0026855,0.0004883,0.0040894  c-2.1311035,4.87323-3.3237305,10.2319336-3.3237305,15.8435669c-0.0053711,0.9150391-0.0141602,22.5908203,9.7592773,39.5058594  c0.1796875,0.3115234,0.5112305,0.5,0.8652344,0.5c0.0341797,0,0.0688477-0.0019531,0.1030273-0.0048828l34.2026367-3.53125  c3.1040039-0.3203125,5.4448242-2.9150391,5.4448242-6.0361328v-3.1455078l24.1430664-2.3427734  c3.125-0.3027344,5.4819336-2.8994141,5.4819336-6.0400391V50.734375c0-10.9326172-4.5039062-21.6220703-12.3564453-29.3261719  C70.0537109,13.8310547,59.9560547,9.7548828,49.3544922,9.9716797z M15.1352539,35.2577515l37.2719727,3.178772  c3.2246094,0.328125,5.4765625,2.5400391,5.4765625,5.3808594v8.0458984c0,2.7519531-2.0634766,5.0498047-4.7998047,5.3447266  l-40.0075073,4.3084717c-0.9443359-6.7004395-0.9431763-11.4476929-0.942688-11.5516357  C12.1337891,44.7664795,13.2058716,39.7943726,15.1352539,35.2577515z M54.8588867,84.4384766l-33.5537109,3.4648438  c-1.262085-2.2509766-2.3449707-4.597168-3.2836304-6.968689l40.4872437-3.5282593v2.9862061  C58.5087891,82.484375,56.9394531,84.2246094,54.8588867,84.4384766z M88.1337891,68.8642578  c0,2.1054688-1.5800781,3.8466797-3.675293,4.0498047l-22.6557007,2.1986694  c-0.0014038,0.0001221-0.0025635-0.0005493-0.0039673-0.0004272l-44.512207,3.8790283  c-1.9441528-5.3899536-3.1560669-10.8140259-3.9091187-15.4959717l39.9203491-4.2990723  c3.7548828-0.4042969,6.5859375-3.5566406,6.5859375-7.3330078v-8.0458984c0-3.8427734-3.059082-6.9423828-7.2905273-7.3720703  l-36.5670166-3.1182861c6.1069336-12.3831177,18.7657471-21.076355,33.366333-21.3553467  c0.2397461-0.0048828,0.4785156-0.0068359,0.7177734-0.0068359c9.800293,0,19.1035156,3.84375,26.2661133,10.8710938  c7.472168,7.3310547,11.7573242,17.4990234,11.7573242,27.8984375V68.8642578z"/><path d="M61.7192383,20.4677734c-3.8920898-1.5771484-7.9887695-2.3359375-12.2050781-2.2558594  c-0.5522461,0.0107422-0.9912109,0.4667969-0.980957,1.0185547c0.0112305,0.5527344,0.4916992,1.0097656,1.019043,0.9814453  c3.9287109-0.0810547,7.7763672,0.6347656,11.4160156,2.109375c0.1230469,0.0498047,0.25,0.0732422,0.375,0.0732422  c0.3955078,0,0.7700195-0.2353516,0.9272461-0.625C62.4780273,21.2578125,62.230957,20.6748047,61.7192383,20.4677734z"/><path d="M68.9116211,24.5488281c-0.4418945-0.3330078-1.0688477-0.2431641-1.4003906,0.1962891  c-0.3325195,0.4414062-0.2446289,1.0683594,0.1962891,1.4013672c7.6513672,5.7695312,12.2197266,14.9140625,12.2197266,24.4619141  c0,0.5527344,0.4477539,1,1,1s1-0.4472656,1-1C81.9272461,40.4365234,77.0615234,30.6953125,68.9116211,24.5488281z"/><path d="M40.2705078,48.796875c0.1953125,0.1953125,0.4511719,0.2929688,0.7070312,0.2929688  s0.5117188-0.0976562,0.7070312-0.2929688l1.59375-1.59375c0.390625-0.390625,0.390625-1.0234375,0-1.4140625  s-1.0234375-0.390625-1.4140625,0l-1.59375,1.59375C39.8798828,47.7734375,39.8798828,48.40625,40.2705078,48.796875z"/><path d="M41.8642578,53.796875c0.1953125,0.1953125,0.4511719,0.2929688,0.7070312,0.2929688  s0.5117188-0.0976562,0.7070312-0.2929688l5-5c0.390625-0.390625,0.390625-1.0234375,0-1.4140625s-1.0234375-0.390625-1.4140625,0  l-5,5C41.4736328,52.7734375,41.4736328,53.40625,41.8642578,53.796875z"/></svg>
