<svg xmlns="http://www.w3.org/2000/svg" xmlns:xlink="http://www.w3.org/1999/xlink" version="1.1" x="0px" y="0px" viewBox="0 0 100 125" style="enable-background:new 0 0 100 100;" xml:space="preserve"><path d="M86.7265625,53.1064453l-28.7470703-21.300293c-0.2021484-0.1347656-0.2568359-0.1708984-0.2558594-0.5444336  l0.0136719-4.3686523c0.0048828-1.3144531,0.0048828-1.4223633,0.0048828-5.4799805  c0-2.8525391-0.8164062-5.5966797-2.3613281-7.9355469l-0.4785156-0.7231445  C53.7480469,11.0063477,51.9492188,10.0024414,49.96875,10c-0.0029297,0-0.0048828,0-0.0068359,0  c-1.9384766,0-3.6884766,0.9614258-4.8017578,2.6376953l-0.5195312,0.7822266  c-1.5595703,2.3500977-2.3837891,5.1088867-2.3828125,7.9790039v4.1450195c0,1.2163086,0,1.5195312,0.0078125,5.8442383  c0,0.1850586-0.1240234,0.3183594-0.2285156,0.3979492c-3.4609375,2.6333008-5.9023438,4.5258789-8.0458984,6.1870117  c-5.203125,4.0336914-8.640625,6.6982422-20.6884766,15.3300781C11.2041016,54.8081055,10,56.9794922,10,59.2612305v6.6044922  c0,0.3217773,0.1542969,0.6235352,0.4160156,0.8115234c0.2597656,0.1875,0.5957031,0.2382812,0.9013672,0.1367188  l29.8642578-9.9916992l0.5380859,17.0439453l-7.8222656,3.7885742c-1.6875,0.8173828-2.7783203,2.6083984-2.7783203,4.5625  v6.6958008c0,0.2958984,0.1308594,0.5761719,0.3574219,0.7661133S32,89.9521484,32.2939453,89.8979492L50,86.7592773  l17.6972656,3.1386719c0.0585938,0.0102539,0.1171875,0.0151367,0.1748047,0.0151367  c0.2333984,0,0.4609375-0.081543,0.6425781-0.2338867c0.2265625-0.1899414,0.3574219-0.4702148,0.3574219-0.7661133v-6.6992188  c0-1.9614258-1.0966797-3.7548828-2.8173828-4.5810547L57.59375,73.8544922l1.1240234-17.0629883l29.9648438,10.0219727  c0.3037109,0.1020508,0.640625,0.0507812,0.9013672-0.1367188C89.8457031,66.4887695,90,66.1870117,90,65.8652344v-6.5834961  C90,56.8588867,88.734375,54.4848633,86.7265625,53.1064453z M88,64.4760742l-29.8769531-9.9926758  c-0.2929688-0.0981445-0.6171875-0.0541992-0.875,0.1176758c-0.2568359,0.1728516-0.4199219,0.4555664-0.4404297,0.7646484  l-1.2558594,19.0517578c-0.0273438,0.4179688,0.2080078,0.8081055,0.5898438,0.9790039l9.0722656,4.0507812  c1.0068359,0.4838867,1.6582031,1.5698242,1.6582031,2.7666016v5.5063477l-16.6972656-2.9614258  c-0.1152344-0.0205078-0.234375-0.0205078-0.3496094,0l-16.7060547,2.9614258v-5.5029297  c0-1.1928711,0.6474609-2.2773438,1.6494141-2.7626953l8.40625-4.0712891  c0.3554688-0.171875,0.5761719-0.5371094,0.5634766-0.9316406l-0.6005859-19.0356445  c-0.0097656-0.315918-0.1679688-0.6083984-0.4277344-0.7890625c-0.1699219-0.1181641-0.3691406-0.1791992-0.5712891-0.1791992  c-0.1064453,0-0.2138672,0.0170898-0.3173828,0.0517578L12,64.4765625v-5.215332  c0-2.2299805,1.546875-3.6713867,2.4677734-4.3320312c12.078125-8.6542969,15.5273438-11.328125,20.7490234-15.375  c2.1396484-1.6586914,4.5761719-3.5473633,8.03125-6.1762695c0.6484375-0.4936523,1.0195312-1.2202148,1.0175781-1.9936523  c-0.0078125-4.3212891-0.0078125-4.6245117-0.0078125-5.8393555v-4.1469727  c-0.0009766-2.4746094,0.7080078-4.8510742,2.0488281-6.8710938l0.5195312-0.7822266  C47.5625,12.6357422,48.7050781,12,49.9619141,12c0.0009766,0,0.0029297,0,0.0039062,0  c1.2988281,0.0014648,2.4892578,0.6782227,3.2685547,1.8574219l0.4785156,0.7231445  c1.3271484,2.0102539,2.0292969,4.3730469,2.0292969,6.8325195c0,4.0522461,0,4.159668-0.0048828,5.4726562l-0.0136719,4.3706055  c-0.0029297,1.003418,0.3525391,1.6875,1.1083984,2.1865234l28.7324219,21.2910156  C87.0664062,55.765625,88,57.5083008,88,59.2817383V64.4760742z"/></svg>
